<?xml version="1.0" encoding="utf-8"?>
<!-- Generator: Adobe Illustrator 18.1.0, SVG Export Plug-In . SVG Version: 6.00 Build 0)  -->
<svg version="1.1" id="Layer_1" xmlns="http://www.w3.org/2000/svg" xmlns:xlink="http://www.w3.org/1999/xlink" x="0px" y="0px"
	 viewBox="0 0 190 126" enable-background="new 0 0 190 126" xml:space="preserve">
<rect fill="#FFFFFF" width="190" height="126"/>
<path fill="#555555" d="M174.4,120.6c0-1.6,1.3-2.8,2.9-2.8c1.5,0,2.9,1.2,2.9,2.8c0,1.6-1.3,2.8-2.9,2.8
	C175.7,123.4,174.4,122.2,174.4,120.6z M177.2,122.9c1.3,0,2.3-1,2.3-2.4c0-1.3-1-2.4-2.3-2.4c-1.3,0-2.3,1-2.3,2.4
	C174.9,121.9,175.9,122.9,177.2,122.9z M176.6,122.2h-0.5V119h1.2c0.8,0,1.2,0.3,1.2,0.9c0,0.6-0.4,0.8-0.8,0.9l0.9,1.4h-0.6
	l-0.9-1.4h-0.6V122.2z M177.2,120.4c0.4,0,0.8,0,0.8-0.5c0-0.4-0.4-0.5-0.7-0.5h-0.7v1H177.2z"/>
<g>
	<g>
		<g>
			<g>
				<path fill="#FF5308" d="M10,59h170v56H10V59"/>
				<g>
					<polyline points="10,56 180,56 180,10 10,10.1 10,56 					"/>
				</g>
				<g>
					<g>
						<path fill="#FFFFFF" d="M30.1,36.2c0.1,2.7,1.8,3.5,4.3,3.5c1.8,0,3.6-0.6,3.6-2.3c0-2-3.2-2.4-6.5-3.3
							c-3.2-0.9-6.6-2.4-6.6-6.6c0-5,5-6.9,9.3-6.9c4.5,0,9.1,2.2,9.1,7.3h-5.9c0.1-2.1-1.8-2.7-3.7-2.7c-1.3,0-2.9,0.4-2.9,1.9
							c0,1.7,3.3,2.1,6.6,3c3.3,0.9,6.6,2.4,6.6,6.6c0,5.8-4.9,7.6-9.9,7.6c-5.2,0-9.8-2.3-9.9-8.1H30.1z"/>
						<path fill="#FFFFFF" d="M45.4,21.2h5.9v22.7h-5.9V21.2z"/>
						<path fill="#FFFFFF" d="M54.2,21.2h8.7l3.9,15.1h0.1l3.9-15.1h8.7v22.7h-5.6V26.6h-0.1l-4.8,17.2h-4.5l-4.8-17.2h-0.1v17.2
							h-5.6V21.2z"/>
						<path fill="#FFFFFF" d="M82.3,21.2h10.8c4.2,0,8.2,1.9,8.2,7.3c0,5.6-3.2,7.8-8.2,7.8h-4.9v7.6h-5.9V21.2z M88.2,31.7h4
							c1.8,0,3.2-0.8,3.2-2.8c0-2.1-1.4-3-3.2-3h-4V31.7z"/>
						<path fill="#FFFFFF" d="M107.4,36.2c0.1,2.7,1.8,3.5,4.3,3.5c1.8,0,3.6-0.6,3.6-2.3c0-2-3.2-2.4-6.5-3.3
							c-3.2-0.9-6.6-2.4-6.6-6.6c0-5,5-6.9,9.3-6.9c4.5,0,9.1,2.2,9.1,7.3h-5.9c0.1-2.1-1.8-2.7-3.7-2.7c-1.3,0-2.9,0.4-2.9,1.9
							c0,1.7,3.3,2.1,6.6,3c3.3,0.9,6.6,2.4,6.6,6.6c0,5.8-4.9,7.6-9.9,7.6c-5.2,0-9.8-2.3-9.9-8.1H107.4z"/>
						<path fill="#FFFFFF" d="M133.1,20.7c7.2,0,11.2,5.2,11.2,11.8s-4,11.8-11.2,11.8c-7.2,0-11.2-5.2-11.2-11.8
							S125.9,20.7,133.1,20.7z M133.1,39.3c3.8,0,5.3-3.4,5.3-6.7c0-3.4-1.5-6.7-5.3-6.7c-3.8,0-5.3,3.4-5.3,6.7
							C127.8,35.9,129.3,39.3,133.1,39.3z"/>
						<path fill="#FFFFFF" d="M146.2,21.2h6.1l7.9,14h0.1v-14h5.6v22.7h-6.1l-7.9-14.2h-0.1v14.2h-5.6V21.2z"/>
					</g>
				</g>
				<g>
					<path fill="#FFFFFF" d="M38.7,82.9h-2.8c-0.5-3.6-3.3-5.6-6-5.6c-1.8,0-3.5,0.6-3.5,2.9c0,4.3,13.4,0.8,13.4,10.5
						c0,5.4-4.3,7.3-8.5,7.3c-2.4,0-4.8-0.5-6.7-2.1l-0.8,1.8h-2.6v-8.9h2.9c0.4,3.6,3.1,6,6.7,6c1.6,0,3.5-1,3.5-2.9
						c0-4.9-13.4-0.9-13.4-10.7c0-5.6,4.6-7.1,8.9-7.1c2.1,0,4.1,0.7,5.9,2l0.6-1.6h2.6V82.9z"/>
					<path fill="#FFFFFF" d="M47.1,75.2v6.3h3.8v2.7h-3.8v9.3c0,0.7,0.3,1.3,1,1.3c1.2,0,1.5-0.9,1.5-2.5v-2.6h2.5v3
						c0,3.3-1.5,5.2-5.2,5.2c-3.2,0-4.9-1.7-4.9-5.2v-8.5h-2.1v-2.7c3.1,0,3.9-3.5,4.1-6.3H47.1z"/>
					<path fill="#FFFFFF" d="M52.3,81.5h7.3v2.7h0.1c0.6-1.6,1.8-3.2,3.6-3.2c1.9,0,3.5,1.6,3.5,3.9c0,1.5-1,3-2.5,3
						c-1.3,0-2.5-0.7-2.5-2.2c0-1.2,0.6-1.9,1.6-2.1c-0.3-0.3-0.6-0.4-1-0.4c-1.6,0-2.7,2.3-2.7,3.9v6.1c0,1,0.2,1.5,1.1,1.5h1.3
						v2.7h-9.9v-2.7h1.3c0.9,0,1.1-0.5,1.1-1.5v-7.5c0-1-0.2-1.5-1.1-1.5h-1.3V81.5z"/>
					<path fill="#FFFFFF" d="M82.6,89.4c0,5.4-3.4,8.5-8,8.5c-4.6,0-8-3-8-8.5c0-5.4,3.4-8.5,8-8.5C79.2,81,82.6,84,82.6,89.4z
						 M72.1,89.4c0,4,0.6,5.7,2.5,5.7c1.9,0,2.5-1.7,2.5-5.7c0-4-0.6-5.7-2.5-5.7C72.7,83.7,72.1,85.4,72.1,89.4z"/>
					<path fill="#FFFFFF" d="M89.7,81.5v2.6h0.1c1.4-2.2,2.8-3.1,5.3-3.1c3.5,0,4.7,2.2,4.7,5.8v6.5c0,1,0.2,1.5,1.1,1.5h1.2v2.7
						h-9.2v-2.7h0.6c0.9,0,1.1-0.5,1.1-1.5v-5.8c0-2-0.3-3.3-2.4-3.3c-1.4,0-2.3,1.5-2.3,2.9v6.3c0,1,0.2,1.5,1.1,1.5h0.7v2.7h-9.3
						v-2.7h1.2c0.9,0,1.1-0.5,1.1-1.5v-7.5c0-1-0.2-1.5-1.1-1.5h-1.3v-2.7H89.7z"/>
					<path fill="#FFFFFF" d="M113.8,95.3c2.7,0,5.4,0.7,5.4,4.2c0,4.2-4.2,5.1-9,5.1c-4.4,0-7.8-0.8-7.8-3.3c0-1.6,1.4-2.3,2.6-2.5
						v-0.1c-1.2-0.4-2.3-1.6-2.3-3.1c0-2,1-2.8,2.7-3.5c-1.5-1.1-2.1-2.7-2.1-5.2c0-4.1,3.6-6,6.9-6c1.7,0,3.3,0.6,4.7,1.5
						c1-0.9,2.1-1.5,3.4-1.5c1.7,0,3.4,1.2,3.4,3.2c0,1.6-0.9,2.4-2.3,2.4c-1,0-1.7-0.8-1.7-1.9c0-0.7,0.4-1.3,0.9-1.7
						c-0.7-0.1-1.6-0.6-2.7,0.7c0.6,1,1.1,2.3,1.1,3.5c0,4.4-3.3,6.4-7.1,6.4c-1,0-2.2-0.1-3.1-0.6c-0.3,0.1-0.6,0.5-0.6,1
						c0,0.8,1.1,1.2,1.6,1.2H113.8z M108.2,87.3c0,2.5,0.4,4.2,1.8,4.2c1.4,0,1.8-1.7,1.8-4.2c0-2.5-0.4-4.2-1.8-4.2
						C108.7,83.1,108.2,84.8,108.2,87.3z M110.9,102.3c2.6,0,4.7-0.4,4.7-1.4c0-1.2-2.1-1.4-4.7-1.4c-2.6,0-4.7,0.2-4.7,1.4
						C106.3,101.9,108.3,102.3,110.9,102.3z"/>
					<path fill="#FFFFFF" d="M123.9,83.5v-8.6h20.5v8.6h-2.9c0-3.5-0.9-5.6-4.5-5.6V93c0,0.8,0.4,1.4,1.2,1.4h1.9v3h-12v-3h1.9
						c0.8,0,1.2-0.5,1.2-1.4V77.9c-3.5,0-4.5,2.2-4.5,5.6H123.9z"/>
					<path fill="#FFFFFF" d="M153.1,93.2c0,1,0.2,1.5,1.1,1.5h1.3v2.7h-9.9v-2.7h1.3c0.9,0,1.1-0.5,1.1-1.5v-7.5
						c0-1-0.2-1.5-1.1-1.5h-1.4v-2.7h7.7V93.2z M153.1,77.2c0,1.7-1.2,3-2.7,3c-1.5,0-2.7-1.3-2.7-3c0-1.7,1.2-3,2.7-3
						C151.9,74.2,153.1,75.5,153.1,77.2z"/>
					<path fill="#FFFFFF" d="M160.5,90.2c0,2.4,0.5,4.8,3.1,4.8c1.1,0,2.8-0.9,3.1-2.9h3.6c-0.5,4.1-4.1,5.8-7.4,5.8
						c-5.3,0-7.8-3.2-7.8-8.5c0-5.3,3.4-8.5,7.8-8.5c5,0,7.8,3.9,7.8,9.2H160.5z M165.2,87.5v-0.9c0-1.7-0.8-2.9-2.3-2.9
						c-1.5,0-2.3,1.2-2.3,2.9v0.9H165.2z"/>
					<path fill="#FFFFFF" d="M119.3,91.1v-3.7h7.9v3.7H119.3z"/>
				</g>
			</g>
		</g>
	</g>
</g>
</svg>
