<?xml version="1.0" encoding="utf-8"?>
<!-- Generator: Adobe Illustrator 18.1.0, SVG Export Plug-In . SVG Version: 6.00 Build 0)  -->
<svg version="1.1" id="Layer_1" xmlns="http://www.w3.org/2000/svg" xmlns:xlink="http://www.w3.org/1999/xlink" x="0px" y="0px"
	 viewBox="0 0 740 465" enable-background="new 0 0 740 465" xml:space="preserve">
<ellipse opacity="0.5" fill="#B6AC66" cx="245.7" cy="439" rx="146.6" ry="15.4"/>
<ellipse opacity="0.5" fill="#9E934B" cx="245.7" cy="439" rx="132" ry="11.3"/>
<ellipse opacity="0.5" fill="#7C733B" cx="245.7" cy="439" rx="117.9" ry="8.6"/>
<ellipse opacity="0.5" fill="#B6AC66" cx="550" cy="440.7" rx="122.6" ry="17.6"/>
<ellipse opacity="0.5" fill="#9E934B" cx="550" cy="440.7" rx="110.4" ry="12.9"/>
<ellipse opacity="0.5" fill="#7C733B" cx="550" cy="440.7" rx="98.6" ry="9.8"/>
<g>
	<polygon fill="#555555" points="122.1,391.5 127,376.4 154.9,373.5 152.4,388.3 	"/>
	<polygon fill="#999999" points="127,376.4 131.6,362.3 157.3,359.6 154.9,373.5 	"/>
	<polygon fill="#555555" points="131.6,362.3 136.4,347.2 159.9,344.8 157.3,359.6 	"/>
	<polygon fill="#999999" points="136.4,347.2 139.8,336.9 161.6,334.7 159.9,344.8 	"/>
	<polygon fill="#555555" points="139.8,336.9 142.9,327.2 163.3,325.1 161.6,334.7 	"/>
	<polygon fill="#999999" points="152.4,388.3 154.9,373.5 181.6,370.8 180.7,385.4 	"/>
	<polygon fill="#555555" points="154.9,373.5 157.3,359.6 182.6,357 181.6,370.8 	"/>
	<polygon fill="#999999" points="157.3,359.6 159.9,344.8 183.6,342.3 182.6,357 	"/>
	<polygon fill="#555555" points="159.9,344.8 161.6,334.7 184.3,332.3 183.6,342.3 	"/>
	<polygon fill="#999999" points="161.6,334.7 163.3,325.1 184.9,322.9 184.3,332.3 	"/>
	<polygon fill="#555555" points="184.9,322.9 206.8,320.6 207.2,329.9 184.3,332.3 	"/>
	<polygon fill="#999999" points="184.3,332.3 207.2,329.9 207.7,339.8 183.6,342.3 	"/>
	<polygon fill="#555555" points="207.7,339.8 208.2,354.4 182.6,357 183.6,342.3 	"/>
	<polygon fill="#999999" points="208.2,354.4 209,367.9 181.6,370.8 182.6,357 	"/>
	<polygon fill="#555555" points="209,367.9 209.6,382.2 180.7,385.4 181.6,370.8 	"/>
	<polygon fill="#999999" points="206.8,320.6 231.5,318.1 232.5,327.3 207.2,329.9 	"/>
	<polygon fill="#555555" points="232.5,327.3 233.5,337.2 207.7,339.8 207.2,329.9 	"/>
	<polygon fill="#999999" points="233.5,337.2 235,351.4 208.2,354.4 207.7,339.8 	"/>
	<polygon fill="#555555" points="235,351.4 236.4,365.1 209,367.9 208.2,354.4 	"/>
	<polygon fill="#A97C50" points="209.6,382.2 209,367.9 261.2,362.5 263.5,376.8 	"/>
	<polygon fill="#999999" points="236.4,365.1 235,351.4 259,349.2 261.2,362.5 	"/>
	<polygon fill="#555555" points="235,351.4 233.5,337.2 256.7,334.7 259,349.2 	"/>
	<polygon fill="#999999" points="233.5,337.2 232.5,327.3 255.1,325 256.7,334.7 	"/>
	<polygon fill="#555555" points="232.5,327.3 231.5,318.1 253.6,315.8 255.1,325 	"/>
	<polygon fill="#999999" points="255.1,325 253.6,315.8 275.5,313.5 277.5,322.7 	"/>
	<polygon fill="#555555" points="277.5,322.7 279.6,332.3 256.7,334.7 255.1,325 	"/>
	<polygon fill="#999999" points="279.6,332.3 282.8,346.7 259,349.2 256.7,334.7 	"/>
	<polygon fill="#555555" points="282.8,346.7 285.7,360 261.2,362.5 259,349.2 	"/>
	<polygon fill="#999999" points="285.7,360 288.8,374.2 263.5,376.8 261.2,362.5 	"/>
	<polygon fill="#555555" points="317.5,371.3 312.7,357 285.7,360 288.8,374.2 	"/>
	<polygon fill="#999999" points="285.7,360 282.8,346.7 308.3,344.1 312.7,357 	"/>
	<polygon fill="#555555" points="282.8,346.7 279.6,332.3 303.4,329.8 308.3,344.1 	"/>
	<polygon fill="#999999" points="279.6,332.3 277.5,322.7 300.2,320.3 303.4,329.8 	"/>
	<polygon fill="#555555" points="277.5,322.7 275.5,313.5 297.1,311.3 300.2,320.3 	"/>
	<polygon fill="#999999" points="300.2,320.3 297.1,311.3 317.5,309.2 322.3,318 	"/>
	<polygon fill="#555555" points="322.3,318 327.8,327.2 303.4,329.8 300.2,320.3 	"/>
	<polygon fill="#999999" points="327.8,327.2 335.7,340.9 308.3,344.1 303.4,329.8 	"/>
	<polygon fill="#555555" points="335.7,340.9 343.1,354.1 312.7,357 308.3,344.1 	"/>
	<polygon fill="#999999" points="343.1,354.1 350.7,367.2 317.5,371.3 312.7,357 	"/>
</g>
<path fill="#E9A459" d="M429.2,132.8l-8.5-13.2c0,0,8.1-13.2,3.8-17c-4.3-3.8-8.9,9.8-8.9,9.8s-8.5-2.4-14.4-0.6
	c-9.2,2.9-16.5,11.4-9.5,18.6c11.5,11.8,22.6,16.7,22.6,16.7L429.2,132.8z"/>
<path fill="#E9A459" d="M661.3,104.1l-3.4-16.5c0,0-16.2-4.1-15.7-10.3c0.5-6.1,14.2,0.9,14.2,0.9s4.8-8.2,10.6-11.2
	c9.3-4.7,21.2-3.6,21.2,7.2c0,17.7-4.9,29.7-4.9,29.7H661.3z"/>
<path fill="#E9A459" d="M575.2,132.9c0,0-0.8-21.5,6-25.8c6.8-4.3,20.8-64.8-29.2-63.7c-50,1.1-50.9,38.3-51.6,42.5
	c-0.7,4.3,0,21.1,0,21.1l17.6-2.9c0,0-10.3,25.7,18.3,25.7v17.3l19.4,41.5L575.2,132.9z"/>
<path fill="none" stroke="#1E1E1E" stroke-width="2.7935" stroke-miterlimit="10" d="M126,199c0,0-7.5-32.5-18.8-25.6
	s-13.3,27.4-7,29c6.3,1.5,11-33.4-1.8-36.2c-12.7-2.8-31.4,22.7-24.6,26.6c6.7,3.9,21.4-17.2,13.8-49.2"/>
<rect x="128.1" y="181" transform="matrix(0.9947 -0.1029 0.1029 0.9947 -23.7736 24.9204)" fill="#B7B7B7" width="203" height="123.5"/>
<rect x="141.7" y="189.4" transform="matrix(0.9947 -0.1029 0.1029 0.9947 -23.7736 24.9204)" fill="#273747" width="175.7" height="106.9"/>
<g>
	<polygon fill="#9D9D9D" points="379,374.6 102.9,403.2 135,314.7 336.9,293.8 	"/>
	
		<rect x="102.9" y="388.9" transform="matrix(0.9947 -0.1029 0.1029 0.9947 -39.4642 26.9782)" fill="#B7B7B7" width="277.5" height="14"/>
</g>
<line fill="none" x1="142.9" y1="327.2" x2="122.1" y2="391.5"/>
<line fill="none" x1="317.5" y1="309.2" x2="351" y2="367.8"/>
<line fill="none" x1="142.9" y1="327.2" x2="317.5" y2="309.2"/>
<line fill="none" x1="122.1" y1="391.5" x2="351" y2="367.8"/>
<g>
	
		<line fill="none" stroke="#515151" stroke-width="2" stroke-linecap="round" stroke-miterlimit="10" x1="163.3" y1="325.1" x2="152.4" y2="388.3"/>
	
		<line fill="none" stroke="#515151" stroke-width="2" stroke-linecap="round" stroke-miterlimit="10" x1="184.9" y1="322.9" x2="180.7" y2="384.8"/>
	
		<line fill="none" stroke="#515151" stroke-width="2" stroke-linecap="round" stroke-miterlimit="10" x1="206.8" y1="320.6" x2="209.6" y2="382.2"/>
	
		<line fill="none" stroke="#515151" stroke-width="2" stroke-linecap="round" stroke-miterlimit="10" x1="231.5" y1="318.1" x2="236.4" y2="365.1"/>
	
		<line fill="none" stroke="#515151" stroke-width="2" stroke-linecap="round" stroke-miterlimit="10" x1="297.1" y1="311.3" x2="317.5" y2="371.3"/>
	
		<line fill="none" stroke="#515151" stroke-width="2" stroke-linecap="round" stroke-miterlimit="10" x1="275.5" y1="313.5" x2="288.8" y2="374.2"/>
	
		<line fill="none" stroke="#515151" stroke-width="2" stroke-linecap="round" stroke-miterlimit="10" x1="253.6" y1="315.8" x2="263.5" y2="376.8"/>
	
		<line fill="none" stroke="#515151" stroke-width="2" stroke-linecap="round" stroke-miterlimit="10" x1="127" y1="376.4" x2="343.1" y2="354.1"/>
	
		<line fill="none" stroke="#515151" stroke-width="2" stroke-linecap="round" stroke-miterlimit="10" x1="131.6" y1="362.3" x2="335.9" y2="341.3"/>
	
		<line fill="none" stroke="#515151" stroke-width="2" stroke-linecap="round" stroke-miterlimit="10" x1="136.4" y1="347.2" x2="327.8" y2="327.2"/>
	
		<line fill="none" stroke="#515151" stroke-width="2" stroke-linecap="round" stroke-miterlimit="10" x1="139.8" y1="336.9" x2="322.3" y2="318"/>
</g>
<path fill="#A695B1" d="M227.5,258.9c0,0-9.8,42.8-25,37.9c0,0-16.2,3.1-1.2-29.6"/>
<path fill="none" stroke="#1E1E1E" stroke-width="3" stroke-linecap="round" stroke-miterlimit="10" d="M212.3,267.3
	c0,0-5.5,4.8-8.7,22.7"/>
<g>
	
		<line fill="none" stroke="#EAEAEA" stroke-width="3" stroke-linecap="round" stroke-miterlimit="10" x1="196.8" y1="223.4" x2="175" y2="248.5"/>
	
		<line fill="none" stroke="#EAEAEA" stroke-width="3" stroke-linecap="round" stroke-miterlimit="10" x1="170.5" y1="226.1" x2="199.1" y2="246"/>
	
		<line fill="none" stroke="#EAEAEA" stroke-width="3" stroke-linecap="round" stroke-miterlimit="10" x1="250.2" y1="217.8" x2="279.8" y2="242.8"/>
	
		<line fill="none" stroke="#EAEAEA" stroke-width="3" stroke-linecap="round" stroke-miterlimit="10" x1="269.8" y1="215.8" x2="247.7" y2="240.9"/>
	<path fill="none" stroke="#EAEAEA" stroke-width="3" stroke-linecap="round" stroke-miterlimit="10" d="M180.7,282.1
		c0,0,7.4-8.2,20.6-15c17.9-9.2,46.5-15.8,81.5,4.4"/>
</g>
<g>
	<polygon fill="#97785D" points="550,156.1 554.1,176.1 558.4,156.1 581.2,156.1 581.2,202.1 526.4,198.1 526.4,158.8 	"/>
	<path fill="#97785D" d="M514,149c0.5-4.8-35.2,16.4-35.2,16.4L432,132.9c0,0-16.2,9-22.5,12.5c-6.2,3.5,58.9,48.8,58.9,48.8
		l57.9,12.2L514,149z"/>
	<path fill="#4489B0" stroke="#231F20" stroke-width="2.8479" stroke-miterlimit="10" d="M539.4,416.4"/>
	<polygon fill="#97785D" points="545.6,153.6 532.4,165.6 528,136.3 	"/>
	<polygon fill="#97785D" points="575.2,136.3 558.4,153.6 573,165.6 	"/>
	<path fill="#97785D" d="M603.4,145.2c-3.2-3.3,24.8,0.7,24.8,0.7l28.8-41.9c0,0,21.3,0,29.5,0s-31.8,58.3-31.8,58.3L603.4,194
		V145.2z"/>
	<path fill="#1E1E1E" d="M577.3,407.9c0,0-3.3,25.2-2,25.2c0.3,0,3,2,6.8,5c1.2,0.9,4.4-4.3,5.8-3.2c1.4,1.1,1.1,8.6,2.7,9.9
		c11.2,9,24.6,15.1,24.6,15.1s15.4,13,15.9-3.7c0.4-16.7-18.3-27.2-16.7-41.9"/>
	<path fill="#4489B0" d="M505.3,151.7l29.3-9.1v49.7h40.7v-49.7h30.9l9.8,77.4c0,0,8.1,58.7,3.2,79.7v119.9l-47.9-2.8V301.3
		l-31.7,117.3h-39l17.9-150.3L505.3,151.7z"/>
	<path fill="#1E1E1E" d="M500.4,417.4c0,0-39,2.8-39,22.4h45.5l4.9-6.5v6.5h27.6v-22.4H500.4z"/>
</g>
<path fill="#E9A459" d="M529.2,130c0,0,25.5-1.7,29.3-2.9"/>
<path fill="none" stroke="#E15C23" stroke-width="3" stroke-linecap="round" stroke-miterlimit="10" d="M516.5,112.2
	c0,0,16-3.7,19.8,2.4"/>
<circle fill="#FFFFFF" cx="532.4" cy="82" r="7.6"/>
<circle fill="#FFFFFF" cx="511.2" cy="76.7" r="7.6"/>
<g>
	<path fill="none" stroke="#1E1E1E" stroke-width="3" stroke-linecap="round" stroke-miterlimit="10" d="M526.4,68.5
		c0,0,10.2,8.4,14.8,8.8"/>
	<path fill="none" stroke="#1E1E1E" stroke-width="3" stroke-linecap="round" stroke-miterlimit="10" d="M516.5,66.7
		c0,0-8.4,6.4-12.9,4.4"/>
</g>
<g>
	<circle fill="#1E1E1E" cx="533.8" cy="81.2" r="3.1"/>
	<circle fill="#1E1E1E" cx="513.1" cy="78.2" r="3.1"/>
</g>
<g>
	<path fill="#A2B7CB" d="M587.8,121.2c0,0,22.1,23,27.7,16.4C624.3,127,587.8,121.2,587.8,121.2z"/>
	<path fill="#A2B7CB" d="M484.7,56c0,0-7.5-23.4-16.3-18.5S484.7,56,484.7,56z"/>
	<path fill="#A2B7CB" d="M485.4,69.7c0,0-35.6-8.7-35.4,3.1S485.4,69.7,485.4,69.7z"/>
</g>
<path fill="#A39382" d="M739.1,86c0,0-16.2,3.9-20.8,0.3c-4.6-3.6,3.3-9.4,3.3-9.4l12.9-1.5c0,0,5,4-4.7-5.5
	c-9.7-9.5-21.6,7.1-21.6,7.1l-26.1,1.3c0,0-42.5-0.4-45.7,8.4c-3.2,8.8,17.9,7.2,17.9,7.2l56.9-3.7C726.4,107.9,739.1,86,739.1,86z
	 M642.9,90c-1.4-1.6-1.2-4.1,0.4-5.5c1.6-1.4,4.1-1.2,5.5,0.4c1.4,1.6,1.2,4.1-0.4,5.5C646.8,91.8,644.3,91.6,642.9,90z"/>
<path fill="#FFFFFF" d="M484.5,39.3l115.3,58.5c0,0,14.3-58.3-24.5-77.8c0,0-38.5-13.5-59.6,18.8C515.6,38.7,497.5,28.7,484.5,39.3z
	"/>
<path fill="#A39382" d="M444.7,100.6l-2-1.5c0,0,11.4-7.3,12-4.2c0.6,3.1,2.6,2.4,2.6,2.4l-7.7,9l-2.3-2l-23.3,18.1l-3-4.1
	L444.7,100.6z"/>
<rect x="402.1" y="110.9" transform="matrix(0.592 0.806 -0.806 0.592 272.3553 -275.0854)" fill="#89A194" width="11.4" height="41.1"/>
<path fill="#E9A459" d="M410.8,116.3c0,0,10.5,8.8,2.6,16.7s-18.9-0.8-18.9-0.8"/>
<path fill="#E9A459" d="M663.1,77.6c0,0-1.5,14.6,10.5,14.8c12,0.2,14-14.8,14-14.8"/>
<polygon fill="#B73700" points="71.7,344.3 0.9,351.9 46.6,331.9 30.7,315.3 105.7,318.9 59.4,330.2 "/>
<polygon fill="#EB8A1B" points="75.6,297.9 36.4,263.7 66.6,276.7 66.5,260 112.1,300 76,280.4 "/>
<path fill="#1E1E1E" d="M528.2,34.1c-0.1-0.4,2.6-6.1,2.6-6.1l21.6,11.3l-2.9,4.9L528.2,34.1z"/>
<polygon fill="#E05F27" points="524.8,41.4 527.9,35.9 549,46 545.6,52.1 "/>
<g id="SST_Logo_Original">
	<rect x="137.1" y="0.3" fill="#FFFFFF" width="187.1" height="124.4"/>
	<g>
		<g>
			<g>
				<path fill="#E05F27" d="M147.2,59.5h167v54.9h-167V59.5"/>
				<g>
					<polyline fill="#1E1E1E" points="147.2,54.5 314.1,54.5 314.1,10.3 147.2,10.3 147.2,54.5 					"/>
				</g>
				<g>
					<g>
						<path fill="#FFFFFF" d="M166.1,35.7c0.1,2.6,1.8,3.5,4.2,3.5c1.8,0,3.6-0.6,3.6-2.3c0-2-3.2-2.4-6.4-3.3
							c-3.2-0.9-6.6-2.4-6.6-6.5c0-4.9,4.9-6.8,9.1-6.8c4.5,0,9,2.2,9,7.2h-5.8c0.1-2-1.8-2.7-3.6-2.7c-1.3,0-2.8,0.4-2.8,1.9
							c0,1.7,3.2,2,6.5,3c3.2,0.9,6.5,2.4,6.5,6.5c0,5.7-4.8,7.5-9.8,7.5c-5.2,0-9.7-2.3-9.7-8H166.1z"/>
						<path fill="#FFFFFF" d="M181.3,20.8h5.8v22.4h-5.8V20.8z"/>
						<path fill="#FFFFFF" d="M190,20.8h8.6l3.9,15h0.1l3.9-15h8.6v22.4h-5.5v-17h-0.1l-4.7,17h-4.5l-4.7-17h-0.1v17H190V20.8z"/>
						<path fill="#FFFFFF" d="M217.8,20.8h10.7c4.2,0,8.1,1.9,8.1,7.2c0,5.6-3.2,7.7-8.1,7.7h-4.8v7.5h-5.8V20.8z M223.6,31.3h3.9
							c1.8,0,3.1-0.8,3.1-2.8c0-2.1-1.4-3-3.1-3h-3.9V31.3z"/>
						<path fill="#FFFFFF" d="M242.6,35.7c0.1,2.6,1.8,3.5,4.2,3.5c1.8,0,3.6-0.6,3.6-2.3c0-2-3.2-2.4-6.4-3.3
							c-3.2-0.9-6.6-2.4-6.6-6.5c0-4.9,4.9-6.8,9.1-6.8c4.5,0,9,2.2,9,7.2h-5.8c0.1-2-1.8-2.7-3.6-2.7c-1.3,0-2.8,0.4-2.8,1.9
							c0,1.7,3.2,2,6.5,3c3.2,0.9,6.5,2.4,6.5,6.5c0,5.7-4.8,7.5-9.8,7.5c-5.2,0-9.7-2.3-9.7-8H242.6z"/>
						<path fill="#FFFFFF" d="M268,20.3c7.1,0,11.1,5.2,11.1,11.7c0,6.5-4,11.7-11.1,11.7c-7.1,0-11.1-5.2-11.1-11.7
							C256.9,25.5,260.9,20.3,268,20.3z M268,38.7c3.8,0,5.2-3.3,5.2-6.7c0-3.3-1.4-6.7-5.2-6.7c-3.8,0-5.2,3.3-5.2,6.7
							C262.8,35.4,264.2,38.7,268,38.7z"/>
						<path fill="#FFFFFF" d="M280.9,20.8h6l7.8,13.8h0.1V20.8h5.5v22.4h-6l-7.8-14h-0.1v14h-5.5V20.8z"/>
					</g>
				</g>
				<g>
					<path fill="#FFFFFF" d="M174.7,81.9h-2.8c-0.5-3.5-3.3-5.5-6-5.5c-1.8,0-3.4,0.6-3.4,2.9c0,4.2,13.2,0.8,13.2,10.4
						c0,5.4-4.2,7.2-8.4,7.2c-2.4,0-4.7-0.5-6.7-2.1l-0.8,1.8h-2.6v-8.8h2.8c0.4,3.5,3.1,6,6.7,6c1.6,0,3.5-1,3.5-2.9
						c0-4.8-13.2-0.9-13.2-10.5c0-5.5,4.5-7.1,8.8-7.1c2.1,0,4.1,0.7,5.8,1.9l0.5-1.6h2.5V81.9z"/>
					<path fill="#FFFFFF" d="M183,74.2v6.2h3.8v2.7H183v9.2c0,0.7,0.3,1.3,1,1.3c1.2,0,1.5-0.9,1.5-2.5v-2.6h2.4v3
						c0,3.3-1.5,5.1-5.1,5.1c-3.1,0-4.9-1.7-4.9-5.1v-8.4h-2v-2.7c3.1,0,3.8-3.5,4.1-6.2H183z"/>
					<path fill="#FFFFFF" d="M188.1,80.5h7.2v2.7h0.1c0.6-1.6,1.8-3.2,3.6-3.2c1.9,0,3.5,1.6,3.5,3.8c0,1.4-1,3-2.4,3
						c-1.3,0-2.4-0.7-2.4-2.2c0-1.1,0.6-1.8,1.6-2c-0.3-0.3-0.6-0.4-1-0.4c-1.6,0-2.6,2.3-2.6,3.9v6c0,0.9,0.2,1.4,1.1,1.4h1.3v2.7
						h-9.8v-2.7h1.3c0.9,0,1.1-0.5,1.1-1.4v-7.5c0-0.9-0.2-1.4-1.1-1.4h-1.3V80.5z"/>
					<path fill="#FFFFFF" d="M218,88.3c0,5.4-3.3,8.4-7.9,8.4c-4.5,0-7.9-3-7.9-8.4c0-5.4,3.3-8.4,7.9-8.4C214.7,80,218,83,218,88.3
						z M207.7,88.3c0,4,0.6,5.7,2.5,5.7c1.8,0,2.5-1.7,2.5-5.7c0-4-0.6-5.7-2.5-5.7C208.3,82.7,207.7,84.4,207.7,88.3z"/>
					<path fill="#FFFFFF" d="M225.1,80.5v2.6h0.1c1.3-2.1,2.8-3.1,5.3-3.1c3.5,0,4.6,2.2,4.6,5.7v6.4c0,0.9,0.2,1.4,1.1,1.4h1.2v2.7
						h-9.1v-2.7h0.6c0.9,0,1.1-0.5,1.1-1.4v-5.8c0-1.9-0.3-3.3-2.3-3.3c-1.4,0-2.3,1.4-2.3,2.9v6.2c0,0.9,0.2,1.4,1.1,1.4h0.7v2.7
						h-9.2v-2.7h1.2c0.9,0,1.1-0.5,1.1-1.4v-7.5c0-0.9-0.2-1.4-1.1-1.4h-1.3v-2.7H225.1z"/>
					<path fill="#FFFFFF" d="M248.9,94.1c2.6,0,5.3,0.7,5.3,4.2c0,4.2-4.2,5-8.9,5c-4.4,0-7.7-0.8-7.7-3.3c0-1.6,1.4-2.3,2.6-2.5
						v-0.1c-1.2-0.4-2.3-1.5-2.3-3c0-2,1-2.7,2.6-3.4c-1.4-1.1-2.1-2.7-2.1-5.1c0-4,3.6-5.9,6.8-5.9c1.6,0,3.2,0.6,4.6,1.5
						c0.9-0.9,2.1-1.5,3.4-1.5c1.7,0,3.3,1.1,3.3,3.2c0,1.5-0.9,2.4-2.3,2.4c-1,0-1.7-0.8-1.7-1.9c0-0.7,0.4-1.2,0.9-1.7
						c-0.7-0.1-1.6-0.6-2.6,0.7c0.6,1,1.1,2.2,1.1,3.5c0,4.4-3.2,6.3-7,6.3c-1,0-2.1-0.1-3.1-0.6c-0.3,0.1-0.6,0.5-0.6,1
						c0,0.8,1.1,1.2,1.6,1.2H248.9z M243.4,86.2c0,2.5,0.4,4.2,1.8,4.2c1.3,0,1.8-1.7,1.8-4.2c0-2.5-0.4-4.2-1.8-4.2
						C243.8,82,243.4,83.7,243.4,86.2z M246.1,101c2.6,0,4.6-0.4,4.6-1.4c0-1.2-2-1.4-4.6-1.4c-2.6,0-4.6,0.2-4.6,1.4
						C241.5,100.6,243.5,101,246.1,101z"/>
					<path fill="#FFFFFF" d="M258.9,82.5v-8.5h20.3v8.5h-2.8c0-3.4-0.9-5.6-4.4-5.6v15c0,0.8,0.4,1.3,1.2,1.3h1.8v3H263v-3h1.9
						c0.8,0,1.2-0.5,1.2-1.3v-15c-3.5,0-4.4,2.1-4.4,5.6H258.9z"/>
					<path fill="#FFFFFF" d="M287.8,92c0,0.9,0.2,1.4,1.1,1.4h1.3v2.7h-9.8v-2.7h1.3c0.9,0,1.1-0.5,1.1-1.4v-7.5
						c0-0.9-0.2-1.4-1.1-1.4h-1.4v-2.7h7.6V92z M287.8,76.2c0,1.6-1.2,2.9-2.7,2.9c-1.5,0-2.7-1.3-2.7-2.9c0-1.6,1.2-2.9,2.7-2.9
						C286.6,73.2,287.8,74.5,287.8,76.2z"/>
					<path fill="#FFFFFF" d="M295.1,89.1c0,2.3,0.5,4.7,3.1,4.7c1.1,0,2.8-0.9,3.1-2.9h3.5c-0.5,4-4.1,5.8-7.4,5.8
						c-5.2,0-7.7-3.2-7.7-8.4c0-5.2,3.4-8.4,7.7-8.4c5,0,7.8,3.9,7.8,9.1H295.1z M299.7,86.4v-0.9c0-1.7-0.8-2.9-2.3-2.9
						c-1.5,0-2.3,1.2-2.3,2.9v0.9H299.7z"/>
					<path fill="#FFFFFF" d="M254.3,90v-3.7h7.8V90H254.3z"/>
				</g>
			</g>
		</g>
	</g>
	<path fill="#1E1E1E" d="M307.6,119.4c0-1.9,1.6-3.3,3.4-3.3c1.8,0,3.4,1.4,3.4,3.3c0,1.9-1.6,3.4-3.4,3.4
		C309.2,122.8,307.6,121.4,307.6,119.4z M311,122.2c1.5,0,2.7-1.2,2.7-2.8c0-1.6-1.2-2.8-2.7-2.8c-1.5,0-2.7,1.2-2.7,2.8
		C308.3,121,309.5,122.2,311,122.2z M310.3,121.4h-0.6v-3.9h1.5c0.9,0,1.4,0.3,1.4,1.1c0,0.7-0.4,1-1,1.1l1.1,1.7H312l-1-1.7h-0.7
		V121.4z M311,119.2c0.5,0,0.9,0,0.9-0.6c0-0.5-0.4-0.6-0.8-0.6h-0.8v1.2H311z"/>
</g>
</svg>
